<svg width="120" height="29" viewBox="0 0 120 29" fill="none" xmlns="http://www.w3.org/2000/svg">
  <rect width="120" height="29" fill="#09C5B9" />
  <mask id="mask0_142_390" style="mask-type:alpha" maskUnits="userSpaceOnUse" x="6" y="3" width="10"
    height="23">
    <rect x="6" y="3" width="9.93148" height="22.9992" fill="#C4C4C4" />
  </mask>
  <g mask="url(#mask0_142_390)">
    <path
      d="M11.7813 5.07725C12.6476 4.42116 13.7052 4.06729 14.7919 4.0699C15.0968 4.0699 15.3394 4.22869 15.4804 4.33793C15.6379 4.46242 15.7853 4.62121 15.9174 4.78C16.011 4.89377 16.0622 5.03658 16.0622 5.18396V9.78626H14.6839C14.5341 9.36248 14.2393 9.00531 13.8516 8.77788C13.4638 8.55044 13.0082 8.46739 12.5652 8.5434C12.1222 8.61941 11.7203 8.84959 11.4306 9.19325C11.1409 9.53691 10.982 9.97193 10.982 10.4214C10.982 10.8709 11.1409 11.3059 11.4306 11.6496C11.7203 11.9932 12.1222 12.2234 12.5652 12.2994C13.0082 12.3754 13.4638 12.2924 13.8516 12.065C14.2393 11.8375 14.5341 11.4803 14.6839 11.0566H16.0622V23.0165C16.0622 23.1105 16.0414 23.2034 16.0012 23.2884C15.961 23.3734 15.9024 23.4485 15.8297 23.5081C15.2428 23.9882 14.4578 24.3947 13.5216 24.3947C12.015 24.3947 10.8933 23.6351 10.168 22.7268C9.64685 22.0797 9.28992 21.3161 9.1276 20.5013C8.63406 20.3697 8.17646 20.1287 7.7887 19.7962C7.08749 19.1954 6.53491 18.2211 6.53491 16.7729C6.53491 16.0654 6.58191 15.4264 6.68735 14.8675H10.6634C11.4713 14.8675 12.1369 15.4709 12.2386 16.2508C11.8161 16.4037 11.4613 16.7009 11.2367 17.09C11.0121 17.4791 10.9322 17.9351 11.0112 18.3773C11.0901 18.8196 11.3228 19.2198 11.6681 19.5071C12.0134 19.7945 12.4491 19.9507 12.8984 19.948C13.3476 19.9453 13.7815 19.784 14.1233 19.4925C14.4652 19.201 14.693 18.7981 14.7667 18.3549C14.8403 17.9117 14.755 17.4568 14.5258 17.0704C14.2966 16.684 13.9382 16.391 13.514 16.2432C13.4604 15.5238 13.1368 14.8513 12.6082 14.3606C12.0795 13.8698 11.3848 13.5971 10.6634 13.5972H7.09512C7.28947 13.2186 7.54988 12.8985 7.88906 12.6711C7.97485 12.6143 8.06488 12.5642 8.15836 12.5212C7.79759 11.4643 7.8916 10.2271 8.23966 9.25528C8.46196 8.63029 8.81511 8.0396 9.30036 7.6458C9.62048 7.38539 10.0016 7.2139 10.4182 7.18087C10.6012 6.31325 11.1156 5.59553 11.7825 5.07725H11.7813ZM17.3325 19.9487H18.2852C19.0433 19.9487 19.7702 19.6476 20.3063 19.1115C20.8423 18.5755 21.1434 17.8485 21.1434 17.0905V14.7595C21.5672 14.6097 21.9243 14.3148 22.1518 13.9271C22.3792 13.5394 22.4623 13.0838 22.3863 12.6408C22.3102 12.1978 22.0801 11.7959 21.7364 11.5062C21.3928 11.2165 20.9577 11.0576 20.5082 11.0576C20.0588 11.0576 19.6237 11.2165 19.2801 11.5062C18.9364 11.7959 18.7062 12.1978 18.6302 12.6408C18.5542 13.0838 18.6373 13.5394 18.8647 13.9271C19.0921 14.3148 19.4493 14.6097 19.8731 14.7595V17.0905C19.8731 17.967 19.1617 18.6784 18.2852 18.6784H17.3325V5.18396C17.3324 5.03658 17.3836 4.89377 17.4773 4.78C17.6081 4.62121 17.7568 4.46242 17.9143 4.33793C18.054 4.22869 18.2966 4.0699 18.6028 4.0699C19.6895 4.06729 20.7471 4.42116 21.6134 5.07725C22.2803 5.59553 22.7948 6.31325 22.9764 7.18087C23.3931 7.21263 23.7742 7.38539 24.0943 7.6458C24.5796 8.0396 24.9327 8.63029 25.155 9.25528C25.5031 10.2271 25.5971 11.4656 25.2363 12.52C25.3278 12.5631 25.418 12.614 25.5056 12.6724C25.8549 12.9049 26.1204 13.2377 26.3161 13.6302C26.701 14.3987 26.8598 15.4709 26.8598 16.7729C26.8598 18.2223 26.3072 19.1954 25.606 19.7962C25.2182 20.1287 24.7606 20.3697 24.2671 20.5013C24.14 21.2101 23.7844 22.0307 23.2267 22.7268C22.5026 23.6351 21.3797 24.3947 19.8731 24.3947C18.9382 24.3947 18.1518 23.9882 17.5662 23.5081C17.4933 23.4486 17.4344 23.3736 17.394 23.2886C17.3536 23.2036 17.3326 23.1106 17.3325 23.0165V19.9487ZM12.8864 9.78626C12.718 9.78626 12.5564 9.85318 12.4373 9.97229C12.3182 10.0914 12.2513 10.253 12.2513 10.4214C12.2513 10.5899 12.3182 10.7514 12.4373 10.8705C12.5564 10.9896 12.718 11.0566 12.8864 11.0566C13.0549 11.0566 13.2164 10.9896 13.3355 10.8705C13.4547 10.7514 13.5216 10.5899 13.5216 10.4214C13.5216 10.253 13.4547 10.0914 13.3355 9.97229C13.2164 9.85318 13.0549 9.78626 12.8864 9.78626ZM12.8864 17.4081C12.718 17.4081 12.5564 17.475 12.4373 17.5941C12.3182 17.7132 12.2513 17.8748 12.2513 18.0432C12.2513 18.2117 12.3182 18.3732 12.4373 18.4924C12.5564 18.6115 12.718 18.6784 12.8864 18.6784C13.0549 18.6784 13.2164 18.6115 13.3355 18.4924C13.4547 18.3732 13.5216 18.2117 13.5216 18.0432C13.5216 17.8748 13.4547 17.7132 13.3355 17.5941C13.2164 17.475 13.0549 17.4081 12.8864 17.4081ZM20.5082 13.5972C20.6767 13.5972 20.8383 13.5303 20.9574 13.4111C21.0765 13.292 21.1434 13.1305 21.1434 12.962C21.1434 12.7936 21.0765 12.632 20.9574 12.5129C20.8383 12.3938 20.6767 12.3269 20.5082 12.3269C20.3398 12.3269 20.1782 12.3938 20.0591 12.5129C19.94 12.632 19.8731 12.7936 19.8731 12.962C19.8731 13.1305 19.94 13.292 20.0591 13.4111C20.1782 13.5303 20.3398 13.5972 20.5082 13.5972Z"
      fill="white" />
  </g>
  <mask id="mask1_142_390" style="mask-type:alpha" maskUnits="userSpaceOnUse" x="103" y="3"
    width="11" height="23">
    <rect x="103.591" y="3" width="9.40877" height="22.9992" fill="#C4C4C4" />
  </mask>
  <g mask="url(#mask1_142_390)">
    <path
      d="M97.8729 5.07694C98.7393 4.42085 99.7968 4.06698 100.884 4.06959C101.188 4.06959 101.431 4.22838 101.572 4.33763C101.73 4.46212 101.877 4.62091 102.009 4.77969C102.103 4.89347 102.154 5.03628 102.154 5.18365V9.78596H100.776C100.626 9.36218 100.331 9.005 99.9432 8.77757C99.5555 8.55014 99.0999 8.46709 98.6569 8.5431C98.2139 8.6191 97.812 8.84928 97.5223 9.19294C97.2325 9.5366 97.0736 9.97162 97.0736 10.4211C97.0736 10.8706 97.2325 11.3056 97.5223 11.6493C97.812 11.9929 98.2139 12.2231 98.6569 12.2991C99.0999 12.3751 99.5555 12.2921 99.9432 12.0646C100.331 11.8372 100.626 11.48 100.776 11.0563H102.154V23.0162C102.154 23.1102 102.133 23.2031 102.093 23.2881C102.053 23.3731 101.994 23.4481 101.921 23.5078C101.335 23.9879 100.549 24.3944 99.6133 24.3944C98.1067 24.3944 96.985 23.6348 96.2597 22.7265C95.7385 22.0794 95.3816 21.3158 95.2193 20.501C94.7257 20.3694 94.2681 20.1284 93.8804 19.7959C93.1792 19.1951 92.6266 18.2208 92.6266 16.7726C92.6266 16.0651 92.6736 15.4261 92.779 14.8672H96.7551C97.563 14.8672 98.2286 15.4706 98.3302 16.2505C97.9078 16.4034 97.553 16.7006 97.3284 17.0897C97.1038 17.4788 97.0239 17.9348 97.1029 18.377C97.1818 18.8193 97.4144 19.2194 97.7598 19.5068C98.1051 19.7942 98.5408 19.9504 98.9901 19.9477C99.4393 19.945 99.8732 19.7837 100.215 19.4922C100.557 19.2007 100.785 18.7978 100.858 18.3546C100.932 17.9114 100.847 17.4565 100.617 17.0701C100.388 16.6837 100.03 16.3907 99.6056 16.2429C99.5521 15.5235 99.2285 14.851 98.6998 14.3603C98.1711 13.8695 97.4764 13.5968 96.7551 13.5969H93.1868C93.3811 13.2183 93.6416 12.8982 93.9807 12.6708C94.0665 12.614 94.1566 12.5639 94.25 12.5209C93.8893 11.464 93.9833 10.2268 94.3313 9.25497C94.5536 8.62998 94.9068 8.03929 95.392 7.6455C95.7122 7.38508 96.0932 7.21359 96.5099 7.18057C96.6928 6.31295 97.2073 5.59523 97.8742 5.07694H97.8729ZM103.424 19.9484H104.377C105.135 19.9484 105.862 19.6473 106.398 19.1112C106.934 18.5752 107.235 17.8482 107.235 17.0902V14.7592C107.659 14.6094 108.016 14.3145 108.243 13.9268C108.471 13.5391 108.554 13.0835 108.478 12.6405C108.402 12.1975 108.172 11.7956 107.828 11.5059C107.484 11.2162 107.049 11.0573 106.6 11.0573C106.15 11.0573 105.715 11.2162 105.372 11.5059C105.028 11.7956 104.798 12.1975 104.722 12.6405C104.646 13.0835 104.729 13.5391 104.956 13.9268C105.184 14.3145 105.541 14.6094 105.965 14.7592V17.0902C105.965 17.9667 105.253 18.6781 104.377 18.6781H103.424V5.18365C103.424 5.03628 103.475 4.89347 103.569 4.77969C103.7 4.62091 103.848 4.46212 104.006 4.33763C104.146 4.22838 104.388 4.06959 104.694 4.06959C105.781 4.06698 106.839 4.42085 107.705 5.07694C108.372 5.59523 108.886 6.31295 109.068 7.18057C109.485 7.21232 109.866 7.38508 110.186 7.6455C110.671 8.03929 111.024 8.62998 111.247 9.25497C111.595 10.2268 111.689 11.4653 111.328 12.5196C111.419 12.5628 111.51 12.6137 111.597 12.6721C111.947 12.9046 112.212 13.2374 112.408 13.6299C112.793 14.3984 112.951 15.4706 112.951 16.7726C112.951 18.222 112.399 19.1951 111.698 19.7959C111.31 20.1284 110.852 20.3694 110.359 20.501C110.232 21.2098 109.876 22.0304 109.318 22.7265C108.594 23.6348 107.471 24.3944 105.965 24.3944C105.03 24.3944 104.244 23.9879 103.658 23.5078C103.585 23.4483 103.526 23.3733 103.486 23.2883C103.445 23.2033 103.424 23.1103 103.424 23.0162V19.9484ZM98.9781 9.78596C98.8096 9.78596 98.6481 9.85287 98.529 9.97199C98.4099 10.0911 98.343 10.2527 98.343 10.4211C98.343 10.5896 98.4099 10.7511 98.529 10.8702C98.6481 10.9893 98.8096 11.0563 98.9781 11.0563C99.1466 11.0563 99.3081 10.9893 99.4272 10.8702C99.5463 10.7511 99.6133 10.5896 99.6133 10.4211C99.6133 10.2527 99.5463 10.0911 99.4272 9.97199C99.3081 9.85287 99.1466 9.78596 98.9781 9.78596ZM98.9781 17.4078C98.8096 17.4078 98.6481 17.4747 98.529 17.5938C98.4099 17.7129 98.343 17.8745 98.343 18.0429C98.343 18.2114 98.4099 18.3729 98.529 18.492C98.6481 18.6112 98.8096 18.6781 98.9781 18.6781C99.1466 18.6781 99.3081 18.6112 99.4272 18.492C99.5463 18.3729 99.6133 18.2114 99.6133 18.0429C99.6133 17.8745 99.5463 17.7129 99.4272 17.5938C99.3081 17.4747 99.1466 17.4078 98.9781 17.4078ZM106.6 13.5969C106.768 13.5969 106.93 13.5299 107.049 13.4108C107.168 13.2917 107.235 13.1302 107.235 12.9617C107.235 12.7933 107.168 12.6317 107.049 12.5126C106.93 12.3935 106.768 12.3266 106.6 12.3266C106.431 12.3266 106.27 12.3935 106.151 12.5126C106.032 12.6317 105.965 12.7933 105.965 12.9617C105.965 13.1302 106.032 13.2917 106.151 13.4108C106.27 13.5299 106.431 13.5969 106.6 13.5969Z"
      fill="white" />
  </g>
  <path
    d="M37.9801 5V23.7077H33.6537V12.489L30.4612 20.1273H26.7018L23.5689 12.489V23.7077H19.2426V5H24.8817L28.671 14.4284L32.5498 5H37.9801Z"
    fill="white" />
  <path
    d="M52.1118 15.8308V5H56.7365V15.8308C56.7365 18.5559 56.0701 20.6047 54.7374 21.9771C53.4047 23.3297 51.4056 24.006 48.7402 24.006C45.9355 24.006 43.8867 23.3596 42.5938 22.0667C41.3208 20.7737 40.6843 18.6951 40.6843 15.8308V5H45.309V15.8308C45.309 17.3425 45.5377 18.3669 45.9952 18.904C46.4726 19.4211 47.3876 19.6797 48.7402 19.6797C50.0729 19.6797 50.968 19.4211 51.4255 18.904C51.883 18.3669 52.1118 17.3425 52.1118 15.8308Z"
    fill="white" />
  <path d="M64.077 5V23.7077H59.4523V5H64.077Z" fill="white" />
  <path
    d="M71.5654 17.6806V23.7077H66.9407V5H73.7733C76.6575 5 78.7063 5.48733 79.9197 6.462C81.133 7.43667 81.7397 9.05781 81.7397 11.3254C81.7397 12.857 81.4115 14.1102 80.7551 15.0848C80.1186 16.0396 79.1439 16.7358 77.8311 17.1734L82.3961 23.7077H76.8465L72.9677 17.6806H71.5654ZM77.0553 11.3254C77.0553 10.5298 76.8166 9.9728 76.3393 9.65454C75.8619 9.33628 75.0065 9.17715 73.7733 9.17715H71.5654V13.951H73.7733C75.0065 13.951 75.8619 13.7621 76.3393 13.3841C76.8166 12.9863 77.0553 12.3001 77.0553 11.3254Z"
    fill="white" />
  <path
    d="M100.303 5V23.7077H95.8868L88.4873 12.9068V23.7077H84.1609V5H88.5469L95.9763 16.2186V5H100.303Z"
    fill="white" />
</svg>
